<svg width="326" height="326" viewBox="0 0 326 326" fill="none" xmlns="http://www.w3.org/2000/svg">
<path d="M64.7875 79.6343C62.128 80.9625 59.0004 79.0284 59.0004 76.0557V46.9216C59.0004 45.5024 59.7523 44.1895 60.9764 43.4714L129.059 3.53369C131.725 1.96946 135.083 3.89237 135.083 6.98388V42.0563C135.083 43.5721 134.226 44.9577 132.87 45.6349L64.7875 79.6343Z" fill="#00A385"/>
<path d="M60.9761 79.7083C59.752 78.9902 59 77.6773 59 76.2581V47.4888C59 44.4309 62.292 42.5038 64.9584 44.001L171.942 104.072C173.203 104.78 173.984 106.114 173.984 107.56V139.016C173.984 142.108 170.627 144.031 167.96 142.466L60.9761 79.7083Z" fill="#00BD9A"/>
<path d="M264.992 66.2917C266.216 67.0097 266.968 68.3227 266.968 69.7418V98.5112C266.968 101.569 263.676 103.496 261.009 101.999L154.025 41.9276C152.764 41.2196 151.984 39.886 151.984 38.4398V6.98388C151.984 3.89237 155.341 1.96946 158.008 3.5337L264.992 66.2917Z" fill="#00A385"/>
<path d="M261.18 66.3656C263.84 65.0375 266.967 66.9715 266.967 69.9442V99.0784C266.967 100.498 266.215 101.81 264.991 102.529L196.909 142.466C194.243 144.031 190.885 142.108 190.885 139.016V103.944C190.885 102.428 191.742 101.042 193.098 100.365L261.18 66.3656Z" fill="#00BD9A"/>
<path d="M88.1839 229.85C88.1839 233.65 89.1089 236.75 90.9589 239.15C92.8589 241.55 95.4589 242.75 98.7589 242.75C101.909 242.75 104.434 241.525 106.334 239.075C108.234 236.625 109.184 233.5 109.184 229.7C109.184 225.95 108.259 222.925 106.409 220.625C104.559 218.325 102.034 217.175 98.8339 217.175C95.6339 217.175 93.0589 218.35 91.1089 220.7C89.1589 223.05 88.1839 226.1 88.1839 229.85ZM109.259 243.125V242.525C108.309 244.375 106.859 245.925 104.909 247.175C103.009 248.375 100.734 248.975 98.0839 248.975C92.9339 248.975 88.7839 247.175 85.6339 243.575C82.5339 239.925 80.9839 235.35 80.9839 229.85C80.9839 224.6 82.5839 220.15 85.7839 216.5C88.9839 212.8 93.0839 210.95 98.0839 210.95C101.034 210.95 103.434 211.55 105.284 212.75C107.134 213.9 108.409 215.325 109.109 217.025V193.7H116.084V241.325C116.084 243.775 116.209 246 116.459 248H109.634C109.384 246.6 109.259 244.975 109.259 243.125ZM132.651 226.25H152.376C152.276 223.55 151.376 221.35 149.676 219.65C147.976 217.9 145.576 217.025 142.476 217.025C139.676 217.025 137.376 217.95 135.576 219.8C133.776 221.6 132.801 223.75 132.651 226.25ZM153.426 235.625L159.501 237.725C158.451 241.075 156.501 243.825 153.651 245.975C150.801 248.075 147.351 249.125 143.301 249.125C138.251 249.125 133.951 247.4 130.401 243.95C126.901 240.45 125.151 235.75 125.151 229.85C125.151 224.35 126.851 219.8 130.251 216.2C133.651 212.6 137.701 210.8 142.401 210.8C147.851 210.8 152.101 212.525 155.151 215.975C158.201 219.375 159.726 223.95 159.726 229.7C159.726 230.6 159.676 231.35 159.576 231.95H132.426C132.476 235.15 133.526 237.775 135.576 239.825C137.676 241.875 140.251 242.9 143.301 242.9C148.451 242.9 151.826 240.475 153.426 235.625ZM175.775 248H168.725V193.7H175.775V248ZM197.218 200.525V211.925H205.018V218.3H197.218V237.05C197.218 238.75 197.593 240 198.343 240.8C199.143 241.6 200.443 242 202.243 242C203.293 242 204.218 241.9 205.018 241.7V247.7C203.818 248.15 202.218 248.375 200.218 248.375C197.118 248.375 194.668 247.475 192.868 245.675C191.068 243.875 190.168 241.35 190.168 238.1V218.3H183.268V211.925H185.218C187.068 211.925 188.443 211.425 189.343 210.425C190.293 209.375 190.768 208.025 190.768 206.375V200.525H197.218ZM212.178 238.325C212.178 235.225 213.178 232.75 215.178 230.9C217.178 229 219.828 227.825 223.128 227.375L232.878 225.95C234.728 225.7 235.653 224.8 235.653 223.25C235.653 221.35 235.003 219.8 233.703 218.6C232.403 217.4 230.453 216.8 227.853 216.8C225.453 216.8 223.553 217.475 222.153 218.825C220.753 220.125 219.928 221.875 219.678 224.075L212.928 222.5C213.278 219.05 214.853 216.25 217.653 214.1C220.453 211.9 223.803 210.8 227.703 210.8C232.803 210.8 236.578 212.05 239.028 214.55C241.478 217 242.703 220.15 242.703 224V242.075C242.703 244.225 242.853 246.2 243.153 248H236.253C236.003 246.5 235.878 244.875 235.878 243.125C234.878 244.725 233.403 246.125 231.453 247.325C229.553 248.525 227.153 249.125 224.253 249.125C220.703 249.125 217.803 248.075 215.553 245.975C213.303 243.825 212.178 241.275 212.178 238.325ZM225.228 243.2C228.378 243.2 230.903 242.35 232.803 240.65C234.703 238.95 235.653 236.25 235.653 232.55V230.9L224.628 232.55C223.028 232.8 221.753 233.375 220.803 234.275C219.853 235.175 219.378 236.4 219.378 237.95C219.378 239.35 219.903 240.575 220.953 241.625C222.053 242.675 223.478 243.2 225.228 243.2ZM99.5089 288.375C96.7089 288.375 94.3339 289.4 92.3839 291.45C90.4339 293.45 89.4589 296.2 89.4589 299.7C89.4589 303.25 90.4339 306.05 92.3839 308.1C94.3839 310.15 96.8089 311.175 99.6589 311.175C102.209 311.175 104.234 310.5 105.734 309.15C107.284 307.75 108.309 306.175 108.809 304.425L116.459 307.2C115.459 310.45 113.509 313.25 110.609 315.6C107.759 317.95 104.109 319.125 99.6589 319.125C94.3089 319.125 89.8089 317.275 86.1589 313.575C82.5589 309.875 80.7589 305.25 80.7589 299.7C80.7589 294.1 82.5339 289.475 86.0839 285.825C89.6839 282.175 94.1339 280.35 99.4339 280.35C103.984 280.35 107.684 281.525 110.534 283.875C113.434 286.225 115.309 289.05 116.159 292.35L108.359 295.2C107.859 293.3 106.884 291.7 105.434 290.4C104.034 289.05 102.059 288.375 99.5089 288.375ZM132.594 308.25C134.594 310.3 137.019 311.325 139.869 311.325C142.719 311.325 145.119 310.3 147.069 308.25C149.069 306.2 150.069 303.35 150.069 299.7C150.069 296.1 149.069 293.3 147.069 291.3C145.119 289.25 142.719 288.225 139.869 288.225C137.019 288.225 134.594 289.25 132.594 291.3C130.644 293.3 129.669 296.1 129.669 299.7C129.669 303.3 130.644 306.15 132.594 308.25ZM139.869 280.35C145.369 280.35 149.894 282.175 153.444 285.825C157.044 289.475 158.844 294.1 158.844 299.7C158.844 305.3 157.044 309.95 153.444 313.65C149.894 317.3 145.369 319.125 139.869 319.125C134.419 319.125 129.894 317.3 126.294 313.65C122.744 309.95 120.969 305.3 120.969 299.7C120.969 294.1 122.744 289.475 126.294 285.825C129.894 282.175 134.419 280.35 139.869 280.35ZM173.101 299.625C173.101 303.125 174.001 305.95 175.801 308.1C177.601 310.2 179.976 311.25 182.926 311.25C185.776 311.25 188.101 310.175 189.901 308.025C191.701 305.875 192.601 303.05 192.601 299.55C192.601 296.1 191.726 293.35 189.976 291.3C188.226 289.25 185.901 288.225 183.001 288.225C180.101 288.225 177.726 289.275 175.876 291.375C174.026 293.425 173.101 296.175 173.101 299.625ZM201.001 263.7V311.325C201.001 313.775 201.126 316 201.376 318H193.051C192.801 316.6 192.676 315.025 192.676 313.275C191.776 314.925 190.376 316.275 188.476 317.325C186.576 318.375 184.401 318.9 181.951 318.9C176.751 318.9 172.526 317.075 169.276 313.425C166.026 309.775 164.401 305.175 164.401 299.625C164.401 294.275 166.026 289.75 169.276 286.05C172.576 282.35 176.751 280.5 181.801 280.5C184.701 280.5 187.026 281.025 188.776 282.075C190.576 283.125 191.826 284.35 192.526 285.75V263.7H201.001ZM218.444 295.725H236.369C236.269 293.425 235.444 291.5 233.894 289.95C232.394 288.4 230.219 287.625 227.369 287.625C224.769 287.625 222.669 288.45 221.069 290.1C219.469 291.7 218.594 293.575 218.444 295.725ZM237.344 305.25L244.694 307.575C243.644 310.925 241.669 313.7 238.769 315.9C235.919 318.05 232.394 319.125 228.194 319.125C222.994 319.125 218.569 317.35 214.919 313.8C211.319 310.25 209.519 305.5 209.519 299.55C209.519 293.95 211.269 289.35 214.769 285.75C218.319 282.15 222.494 280.35 227.294 280.35C232.894 280.35 237.269 282.075 240.419 285.525C243.569 288.925 245.144 293.525 245.144 299.325C245.144 300.875 245.069 301.8 244.919 302.1H218.219C218.319 304.85 219.319 307.125 221.219 308.925C223.169 310.725 225.494 311.625 228.194 311.625C232.894 311.625 235.944 309.5 237.344 305.25Z" fill="white"/>
</svg>
