<svg width="18" height="19" viewBox="0 0 18 19" fill="none" xmlns="http://www.w3.org/2000/svg">
<path d="M5 10.4C4.50294 10.4 4.1 9.99706 4.1 9.5C4.1 9.00294 4.50294 8.6 5 8.6C5.49706 8.6 5.9 9.00294 5.9 9.5C5.9 9.99706 5.49706 10.4 5 10.4ZM5 14.4C4.50294 14.4 4.1 13.9971 4.1 13.5C4.1 13.0029 4.50294 12.6 5 12.6C5.49706 12.6 5.9 13.0029 5.9 13.5C5.9 13.9971 5.49706 14.4 5 14.4ZM9 14.4C8.50294 14.4 8.1 13.9971 8.1 13.5C8.1 13.0029 8.50294 12.6 9 12.6C9.49706 12.6 9.9 13.0029 9.9 13.5C9.9 13.9971 9.49706 14.4 9 14.4ZM13 14.4C12.5029 14.4 12.1 13.9971 12.1 13.5C12.1 13.0029 12.5029 12.6 13 12.6C13.4971 12.6 13.9 13.0029 13.9 13.5C13.9 13.9971 13.4971 14.4 13 14.4ZM9 10.4C8.50294 10.4 8.1 9.99706 8.1 9.5C8.1 9.00294 8.50294 8.6 9 8.6C9.49706 8.6 9.9 9.00294 9.9 9.5C9.9 9.99706 9.49706 10.4 9 10.4ZM13 10.4C12.5029 10.4 12.1 9.99706 12.1 9.5C12.1 9.00294 12.5029 8.6 13 8.6C13.4971 8.6 13.9 9.00294 13.9 9.5C13.9 9.99706 13.4971 10.4 13 10.4ZM4.1 5.5C4.1 5.00294 4.50294 4.6 5 4.6H13C13.4971 4.6 13.9 5.00294 13.9 5.5C13.9 5.99706 13.4971 6.4 13 6.4H5C4.50294 6.4 4.1 5.99706 4.1 5.5ZM0.1 3.5C0.1 1.89837 1.39837 0.6 3 0.6H15C16.6016 0.6 17.9 1.89837 17.9 3.5V15.5C17.9 17.1016 16.6016 18.4 15 18.4H3C1.39837 18.4 0.1 17.1016 0.1 15.5V3.5ZM15 2.4H3C2.39249 2.4 1.9 2.89249 1.9 3.5V15.5C1.9 16.1075 2.39249 16.6 3 16.6H15C15.6075 16.6 16.1 16.1075 16.1 15.5V3.5C16.1 2.89249 15.6075 2.4 15 2.4Z" fill="white" stroke="#00A385" stroke-width="0.2"/>
</svg>
