<svg width="24" height="14" viewBox="0 0 24 14" fill="none" xmlns="http://www.w3.org/2000/svg">
<path d="M8.88889 7.72778C8.48695 7.72778 8.16111 7.40194 8.16111 7C8.16111 6.59806 8.48695 6.27222 8.88889 6.27222C9.29083 6.27222 9.61667 6.59806 9.61667 7C9.61667 7.40194 9.29083 7.72778 8.88889 7.72778ZM8.88889 10.8389C8.48695 10.8389 8.16111 10.5131 8.16111 10.1111C8.16111 9.70917 8.48695 9.38333 8.88889 9.38333C9.29083 9.38333 9.61667 9.70917 9.61667 10.1111C9.61667 10.5131 9.29083 10.8389 8.88889 10.8389ZM12 10.8389C11.5981 10.8389 11.2722 10.5131 11.2722 10.1111C11.2722 9.70917 11.5981 9.38333 12 9.38333C12.4019 9.38333 12.7278 9.70917 12.7278 10.1111C12.7278 10.5131 12.4019 10.8389 12 10.8389ZM15.1111 10.8389C14.7092 10.8389 14.3833 10.5131 14.3833 10.1111C14.3833 9.70917 14.7092 9.38333 15.1111 9.38333C15.5131 9.38333 15.8389 9.70917 15.8389 10.1111C15.8389 10.5131 15.5131 10.8389 15.1111 10.8389ZM12 7.72778C11.5981 7.72778 11.2722 7.40194 11.2722 7C11.2722 6.59806 11.5981 6.27222 12 6.27222C12.4019 6.27222 12.7278 6.59806 12.7278 7C12.7278 7.40194 12.4019 7.72778 12 7.72778ZM15.1111 7.72778C14.7092 7.72778 14.3833 7.40194 14.3833 7C14.3833 6.59806 14.7092 6.27222 15.1111 6.27222C15.5131 6.27222 15.8389 6.59806 15.8389 7C15.8389 7.40194 15.5131 7.72778 15.1111 7.72778ZM8.16111 3.88889C8.16111 3.48695 8.48695 3.16111 8.88889 3.16111H15.1111C15.5131 3.16111 15.8389 3.48695 15.8389 3.88889C15.8389 4.29083 15.5131 4.61667 15.1111 4.61667H8.88889C8.48695 4.61667 8.16111 4.29083 8.16111 3.88889ZM5.05 2.33333C5.05 1.07228 6.07228 0.05 7.33333 0.05H16.6667C17.9277 0.05 18.95 1.07228 18.95 2.33333V11.6667C18.95 12.9277 17.9277 13.95 16.6667 13.95H7.33333C6.07228 13.95 5.05 12.9277 5.05 11.6667V2.33333ZM16.6667 1.50556H7.33333C6.87616 1.50556 6.50556 1.87616 6.50556 2.33333V11.6667C6.50556 12.1238 6.87616 12.4944 7.33333 12.4944H16.6667C17.1238 12.4944 17.4944 12.1238 17.4944 11.6667V2.33333C17.4944 1.87616 17.1238 1.50556 16.6667 1.50556Z" fill="#000000" stroke="#FDFDFD" stroke-width="0.1"/>
</svg>
