<svg width="18" height="21" viewBox="0 0 18 21" fill="none" xmlns="http://www.w3.org/2000/svg">
<path d="M10.1 2.5V2.4H10H3C2.39249 2.4 1.9 2.89249 1.9 3.5V17.5C1.9 18.1075 2.39249 18.6 3 18.6H15C15.6075 18.6 16.1 18.1075 16.1 17.5V7.5V7.4H16H10.1V2.5ZM12.0199 2.50202L11.9 2.47768V2.60002V5.5V5.6H12H15.584H15.7368L15.6756 5.45996C15.0201 3.9597 13.6637 2.8357 12.0199 2.50202ZM13.9 14.6V16.4H4.1V14.6H13.9ZM13.9 12.4H4.1V10.6H13.9V12.4ZM7.9 6.6V8.4H4.1V6.6H7.9ZM0.1 3.5C0.1 1.89837 1.39837 0.6 3 0.6H11C14.8108 0.6 17.9 3.68924 17.9 7.5V17.5C17.9 19.1016 16.6016 20.4 15 20.4H3C1.39837 20.4 0.1 19.1016 0.1 17.5V3.5Z" fill="white" stroke="#00A385" stroke-width="0.2"/>
</svg>
