<svg width="60" height="55" viewBox="0 0 23 17" fill="none" xmlns="http://www.w3.org/2000/svg">
<path d="M8.05547 12.4168L8.03028 12.4H8H4C1.84609 12.4 0.1 10.6539 0.1 8.5C0.1 6.34609 1.84609 4.6 4 4.6H8H8.03028L8.05547 4.58321L13.9 0.686852V16.3131L8.05547 12.4168ZM12.1 4V3.81958L11.947 3.9152L7.97132 6.4H4C2.8402 6.4 1.9 7.3402 1.9 8.5C1.9 9.6598 2.8402 10.6 4 10.6H7.97132L11.947 13.0848L12.1 13.1804V13V4ZM22.9 8.5C22.9 12.8297 19.417 16.3458 15.1 16.3994V14.5992C18.4228 14.5458 21.1 11.8355 21.1 8.5C21.1 5.16446 18.4228 2.45421 15.1 2.4008V0.60062C19.417 0.654172 22.9 4.17033 22.9 8.5ZM18.9 8.5C18.9 10.6205 17.2077 12.3457 15.1 12.3987V10.5977C16.2134 10.5455 17.1 9.62628 17.1 8.5C17.1 7.37372 16.2134 6.45453 15.1 6.40234V4.60126C17.2077 4.6543 18.9 6.37952 18.9 8.5Z" fill="white" stroke="#00A385" stroke-width="0.2"/>
</svg>
